<?xml version="1.0" encoding="UTF-8"?> <!-- Generator: Adobe Illustrator 23.1.1, SVG Export Plug-In . SVG Version: 6.00 Build 0) --> <svg xmlns="http://www.w3.org/2000/svg" xmlns:xlink="http://www.w3.org/1999/xlink" id="Слой_1" x="0px" y="0px" viewBox="0 0 199.25 34.8" style="enable-background:new 0 0 199.25 34.8;" xml:space="preserve"> <style type="text/css"> .st0{fill:#0F0F10;} </style> <g> <path class="st0" d="M42.02,22.54c0,1.84-0.9,2.1-1.79,2.1c-0.88,0-1.79-0.26-1.79-2.1v-14h-2.79V22.1c0,2.98,1.49,4.43,4.57,4.43 c3.09,0,4.6-1.45,4.6-4.43V8.54h-2.79V22.54z"></path> <path class="st0" d="M103.57,21.23l0.01,0.27c0.23,2.41,0.99,3.07,2.03,3.09c1.23,0.02,1.95-0.96,1.95-2.27 c0-1.91-1.44-3.06-2.96-4.28c-1.75-1.4-3.56-2.84-3.56-5.56c0-2.59,1.65-4.14,4.41-4.14c2.98,0,4.71,1.5,4.68,4.98l0.01,0.21 l-2.66,0l-0.01-0.12c-0.11-2.48-0.95-3.16-1.86-3.15c-1.23,0.01-1.76,0.83-1.76,2.02c0,1.81,1.41,2.92,2.9,4.1 c1.71,1.35,3.65,2.89,3.65,5.71c0,2.79-1.8,4.45-4.83,4.45c-3.05,0-4.59-1.58-4.74-4.95l-0.01-0.36L103.57,21.23z"></path> <path class="st0" d="M156.95,21.14l0.01,0.27c0.23,2.41,0.99,3.07,2.03,3.09c1.23,0.02,1.95-0.96,1.95-2.27 c0-1.91-1.44-3.06-2.96-4.28c-1.75-1.4-3.56-2.84-3.56-5.56c0-2.59,1.65-4.14,4.41-4.14c2.98,0,4.71,1.5,4.68,4.98l0.01,0.21 l-2.66,0l-0.01-0.12c-0.11-2.48-0.95-3.16-1.86-3.15c-1.23,0.01-1.76,0.83-1.76,2.02c0,1.81,1.41,2.92,2.9,4.1 c1.71,1.35,3.65,2.89,3.65,5.71c0,2.79-1.8,4.45-4.83,4.45c-3.05,0-4.59-1.58-4.74-4.95l-0.01-0.36L156.95,21.14z"></path> <polygon class="st0" points="143.75,19.68 143.7,19.39 140.08,8.54 136.69,8.54 136.69,26.36 139.16,26.34 139.16,12.96 139.23,13.22 143.68,26.36 146.24,26.36 146.24,8.54 143.75,8.54 "></polygon> <polygon class="st0" points="171.9,8.49 171.9,26.26 181.23,26.27 181.23,24.2 174.72,24.2 174.72,18.1 179.43,18.1 179.42,16.06 174.72,16.06 174.72,10.56 180.86,10.56 180.86,8.49 "></polygon> <polygon class="st0" points="118.88,8.56 118.88,26.32 128.21,26.34 128.21,24.27 121.7,24.27 121.7,18.17 126.41,18.17 126.4,16.12 121.7,16.12 121.7,10.63 127.84,10.63 127.84,8.56 "></polygon> <polygon class="st0" points="71.82,8.56 71.82,26.32 81.15,26.34 81.14,24.27 74.63,24.27 74.63,18.17 79.34,18.17 79.34,16.12 74.63,16.12 74.63,10.63 80.77,10.63 80.77,8.56 "></polygon> <path class="st0" d="M27.35,12.15c-0.53-2.42-2.19-3.6-5.6-3.6h-3.63v17.82h2.79l0.02-7.71h0.82c2.96,0,4.66-0.89,5.37-2.71 C27.47,15.09,27.55,13.08,27.35,12.15z M24.48,15.31c-0.25,1.06-1.37,1.49-2.85,1.49h-0.67l-0.02-0.07l0.01-6.31h0.67 c1.77,0,2.81,0.42,2.96,2.25C24.59,12.82,24.71,14.32,24.48,15.31z"></path> <path class="st0" d="M63.81,26.34c-0.27-0.51-0.79-0.87-0.79-2.5l-0.03-2.46c0-2.22-0.53-3.37-3.11-3.94l-0.01,0 c2.33-0.47,3.18-2.07,3.18-4.23c0-3.19-1.8-4.67-5.68-4.67h-3.63v17.82h2.79v-7.9l1.27,0c2.07,0,2.59,0.83,2.57,2.96l0.05,2.88 c0,1.31,0.62,1.82,0.82,2.04H63.81z M56.57,10.41h0.67c1.93,0,2.98,0.49,2.98,2.76c0,2.59-1.26,3.28-2.45,3.28h-1.24L56.57,10.41z"></path> </g> </svg> 